<mxfile host="app.diagrams.net" agent="Mozilla/5.0 (Windows NT 10.0; Win64; x64) AppleWebKit/537.36 (KHTML, like Gecko) Chrome/130.0.0.0 Safari/537.36" version="25.0.1">
  <diagram name="Page-1" id="2wX3T_dbg2wi5yE8N3dc">
    <mxGraphModel grid="1" page="1" gridSize="10" guides="1" tooltips="1" connect="1" arrows="1" fold="1" pageScale="1" pageWidth="850" pageHeight="1100" math="0" shadow="0">
      <root>
        <mxCell id="0" />
        <mxCell id="1" parent="0" />
        <mxCell id="M-aX86utY8OTK0k6e23K-1" value="Vehicle" style="swimlane;fontStyle=1;align=center;verticalAlign=top;childLayout=stackLayout;horizontal=1;startSize=26;horizontalStack=0;resizeParent=1;resizeParentMax=0;resizeLast=0;collapsible=1;marginBottom=0;whiteSpace=wrap;html=1;" vertex="1" parent="1">
          <mxGeometry x="190" y="-10" width="470" height="200" as="geometry" />
        </mxCell>
        <mxCell id="M-aX86utY8OTK0k6e23K-2" value="&lt;div&gt;- _class_manufacture_year : int&lt;/div&gt;&lt;div&gt;-&amp;nbsp;&amp;nbsp;_class_is_operational : bool&lt;/div&gt;-&amp;nbsp; _manufacture_year : int&lt;div&gt;-&amp;nbsp;_is_operational : bool&lt;br&gt;&amp;nbsp;&lt;span style=&quot;color: rgba(0, 0, 0, 0); font-family: monospace; font-size: 0px; text-wrap-mode: nowrap;&quot;&gt;%3CmxGraphModel%3E%3Croot%3E%3CmxCell%20id%3D%220%22%2F%3E%3CmxCell%20id%3D%221%22%20parent%3D%220%22%2F%3E%3CmxCell%20id%3D%222%22%20value%3D%22%2B%26amp%3Bnbsp%3Bmanufacturer_year%3A%20int%26lt%3Bbr%26gt%3B%26lt%3Bdiv%26gt%3B%26lt%3Bspan%20style%3D%26quot%3Bbackground-color%3A%20initial%3B%26quot%3B%26gt%3B%2B%20is_operational%20%3A%20boolean%26lt%3B%2Fspan%26gt%3B%26lt%3B%2Fdiv%26gt%3B%26lt%3Bdiv%26gt%3B%26lt%3Bbr%26gt%3B%26lt%3B%2Fdiv%26gt%3B%22%20style%3D%22text%3BstrokeColor%3Dnone%3BfillColor%3Dnone%3Balign%3Dleft%3BverticalAlign%3Dtop%3BspacingLeft%3D4%3BspacingRight%3D4%3Boverflow%3Dhidden%3Brotatable%3D0%3Bpoints%3D%5B%5B0%2C0.5%5D%2C%5B1%2C0.5%5D%5D%3BportConstraint%3Deastwest%3BwhiteSpace%3Dwrap%3Bhtml%3D1%3B%22%20vertex%3D%221%22%20parent%3D%221%22%3E%3CmxGeometry%20x%3D%22190%22%20y%3D%22186%22%20width%3D%22300%22%20height%3D%2254%22%20as%3D%22geometry%22%2F%3E%3C%2FmxCell%3E%3C%2Froot%3E%3C%2FmxGraphModel%3E&lt;/span&gt;&lt;div&gt;&lt;br&gt;&lt;/div&gt;&lt;/div&gt;" style="text;strokeColor=none;fillColor=none;align=left;verticalAlign=top;spacingLeft=4;spacingRight=4;overflow=hidden;rotatable=0;points=[[0,0.5],[1,0.5]];portConstraint=eastwest;whiteSpace=wrap;html=1;" vertex="1" parent="M-aX86utY8OTK0k6e23K-1">
          <mxGeometry y="26" width="470" height="74" as="geometry" />
        </mxCell>
        <mxCell id="M-aX86utY8OTK0k6e23K-3" value="" style="line;strokeWidth=1;fillColor=none;align=left;verticalAlign=middle;spacingTop=-1;spacingLeft=3;spacingRight=3;rotatable=0;labelPosition=right;points=[];portConstraint=eastwest;strokeColor=inherit;" vertex="1" parent="M-aX86utY8OTK0k6e23K-1">
          <mxGeometry y="100" width="470" height="8" as="geometry" />
        </mxCell>
        <mxCell id="M-aX86utY8OTK0k6e23K-4" value="&lt;div&gt;&lt;br&gt;&lt;div&gt;+ __str__(): str&lt;/div&gt;&lt;/div&gt;&lt;div&gt;+&amp;nbsp;set_common_attributes (manufacture_year: int, is_operational: bool) : void&lt;/div&gt;&lt;div&gt;+ get_common_attributes () : void&lt;/div&gt;" style="text;strokeColor=none;fillColor=none;align=left;verticalAlign=top;spacingLeft=4;spacingRight=4;overflow=hidden;rotatable=0;points=[[0,0.5],[1,0.5]];portConstraint=eastwest;whiteSpace=wrap;html=1;" vertex="1" parent="M-aX86utY8OTK0k6e23K-1">
          <mxGeometry y="108" width="470" height="92" as="geometry" />
        </mxCell>
        <mxCell id="M-aX86utY8OTK0k6e23K-26" value="Transport" style="swimlane;fontStyle=1;align=center;verticalAlign=top;childLayout=stackLayout;horizontal=1;startSize=26;horizontalStack=0;resizeParent=1;resizeParentMax=0;resizeLast=0;collapsible=1;marginBottom=0;whiteSpace=wrap;html=1;" vertex="1" parent="1">
          <mxGeometry x="220" y="370" width="320" height="270" as="geometry" />
        </mxCell>
        <mxCell id="M-aX86utY8OTK0k6e23K-27" value="-&amp;nbsp;_has_engine: bool&amp;nbsp;&lt;div&gt;&lt;span style=&quot;background-color: initial;&quot;&gt;+&amp;nbsp;vehicles_created: int&lt;/span&gt;&lt;/div&gt;&lt;div&gt;&lt;span style=&quot;background-color: initial;&quot;&gt;+max_speed: float&amp;nbsp;&lt;/span&gt;&lt;/div&gt;&lt;div&gt;&lt;span style=&quot;background-color: initial;&quot;&gt;+max_capacity: int&lt;/span&gt;&lt;/div&gt;" style="text;strokeColor=none;fillColor=none;align=left;verticalAlign=top;spacingLeft=4;spacingRight=4;overflow=hidden;rotatable=0;points=[[0,0.5],[1,0.5]];portConstraint=eastwest;whiteSpace=wrap;html=1;" vertex="1" parent="M-aX86utY8OTK0k6e23K-26">
          <mxGeometry y="26" width="320" height="84" as="geometry" />
        </mxCell>
        <mxCell id="M-aX86utY8OTK0k6e23K-28" value="" style="line;strokeWidth=1;fillColor=none;align=left;verticalAlign=middle;spacingTop=-1;spacingLeft=3;spacingRight=3;rotatable=0;labelPosition=right;points=[];portConstraint=eastwest;strokeColor=inherit;" vertex="1" parent="M-aX86utY8OTK0k6e23K-26">
          <mxGeometry y="110" width="320" height="8" as="geometry" />
        </mxCell>
        <mxCell id="M-aX86utY8OTK0k6e23K-29" value="+ get_total_vehicles() : int&lt;div&gt;+ __str__() : str&lt;/div&gt;&lt;div&gt;+ __len__() : int&amp;nbsp;&lt;/div&gt;&lt;div&gt;+&amp;nbsp;__call__(message) : str&lt;br&gt;&lt;div&gt;+&amp;nbsp;print_class_hierarchy(Vehicle) : void&lt;/div&gt;&lt;/div&gt;&lt;div&gt;+ transport_type: void&lt;br&gt;&amp;nbsp;+ get_transport_type(): void&amp;nbsp;&amp;nbsp;&lt;/div&gt;&lt;div&gt;&amp;nbsp;+ get_max_speed(): void&lt;/div&gt;" style="text;strokeColor=none;fillColor=none;align=left;verticalAlign=top;spacingLeft=4;spacingRight=4;overflow=hidden;rotatable=0;points=[[0,0.5],[1,0.5]];portConstraint=eastwest;whiteSpace=wrap;html=1;" vertex="1" parent="M-aX86utY8OTK0k6e23K-26">
          <mxGeometry y="118" width="320" height="152" as="geometry" />
        </mxCell>
        <mxCell id="M-aX86utY8OTK0k6e23K-31" value="Car" style="swimlane;fontStyle=1;align=center;verticalAlign=top;childLayout=stackLayout;horizontal=1;startSize=26;horizontalStack=0;resizeParent=1;resizeParentMax=0;resizeLast=0;collapsible=1;marginBottom=0;whiteSpace=wrap;html=1;" vertex="1" parent="1">
          <mxGeometry x="20" y="720" width="220" height="200" as="geometry" />
        </mxCell>
        <mxCell id="M-aX86utY8OTK0k6e23K-32" value="&lt;div&gt;&amp;nbsp;+&amp;nbsp;transport_type : str&lt;/div&gt;&lt;div&gt;&amp;nbsp;+vehicle: str&lt;/div&gt;&lt;div&gt;&amp;nbsp;+ model : str&lt;/div&gt;&lt;div&gt;&amp;nbsp;+ brand : str&lt;/div&gt;&lt;div&gt;&amp;nbsp;-_wheel_number : int&amp;nbsp;&lt;/div&gt;" style="text;strokeColor=none;fillColor=none;align=left;verticalAlign=top;spacingLeft=4;spacingRight=4;overflow=hidden;rotatable=0;points=[[0,0.5],[1,0.5]];portConstraint=eastwest;whiteSpace=wrap;html=1;" vertex="1" parent="M-aX86utY8OTK0k6e23K-31">
          <mxGeometry y="26" width="220" height="84" as="geometry" />
        </mxCell>
        <mxCell id="M-aX86utY8OTK0k6e23K-33" value="" style="line;strokeWidth=1;fillColor=none;align=left;verticalAlign=middle;spacingTop=-1;spacingLeft=3;spacingRight=3;rotatable=0;labelPosition=right;points=[];portConstraint=eastwest;strokeColor=inherit;" vertex="1" parent="M-aX86utY8OTK0k6e23K-31">
          <mxGeometry y="110" width="220" height="8" as="geometry" />
        </mxCell>
        <mxCell id="M-aX86utY8OTK0k6e23K-34" value="&lt;div&gt;&lt;span style=&quot;background-color: initial;&quot;&gt;+ get_transport_type() : str&lt;/span&gt;&lt;/div&gt;&lt;div&gt;+ get_max_speed() : str&lt;/div&gt;&lt;div&gt;&lt;span class=&quot;hljs-built_in&quot;&gt;+&amp;nbsp;&lt;/span&gt;__add__(Transport) : float&lt;br&gt;&lt;div&gt;+ &amp;nbsp;__str__() : str&lt;/div&gt;&lt;/div&gt;" style="text;strokeColor=none;fillColor=none;align=left;verticalAlign=top;spacingLeft=4;spacingRight=4;overflow=hidden;rotatable=0;points=[[0,0.5],[1,0.5]];portConstraint=eastwest;whiteSpace=wrap;html=1;" vertex="1" parent="M-aX86utY8OTK0k6e23K-31">
          <mxGeometry y="118" width="220" height="82" as="geometry" />
        </mxCell>
        <mxCell id="M-aX86utY8OTK0k6e23K-35" value="ElectricCar" style="swimlane;fontStyle=1;align=center;verticalAlign=top;childLayout=stackLayout;horizontal=1;startSize=26;horizontalStack=0;resizeParent=1;resizeParentMax=0;resizeLast=0;collapsible=1;marginBottom=0;whiteSpace=wrap;html=1;" vertex="1" parent="1">
          <mxGeometry x="10" y="1020" width="200" height="120" as="geometry" />
        </mxCell>
        <mxCell id="M-aX86utY8OTK0k6e23K-36" value="&lt;div&gt;+&amp;nbsp;battery_voltage : float&lt;/div&gt;" style="text;strokeColor=none;fillColor=none;align=left;verticalAlign=top;spacingLeft=4;spacingRight=4;overflow=hidden;rotatable=0;points=[[0,0.5],[1,0.5]];portConstraint=eastwest;whiteSpace=wrap;html=1;" vertex="1" parent="M-aX86utY8OTK0k6e23K-35">
          <mxGeometry y="26" width="200" height="44" as="geometry" />
        </mxCell>
        <mxCell id="M-aX86utY8OTK0k6e23K-37" value="" style="line;strokeWidth=1;fillColor=none;align=left;verticalAlign=middle;spacingTop=-1;spacingLeft=3;spacingRight=3;rotatable=0;labelPosition=right;points=[];portConstraint=eastwest;strokeColor=inherit;" vertex="1" parent="M-aX86utY8OTK0k6e23K-35">
          <mxGeometry y="70" width="200" height="8" as="geometry" />
        </mxCell>
        <mxCell id="M-aX86utY8OTK0k6e23K-38" value="&lt;div&gt;&lt;span style=&quot;background-color: initial;&quot;&gt;+ &amp;nbsp;__str__() : str&lt;/span&gt;&lt;/div&gt;" style="text;strokeColor=none;fillColor=none;align=left;verticalAlign=top;spacingLeft=4;spacingRight=4;overflow=hidden;rotatable=0;points=[[0,0.5],[1,0.5]];portConstraint=eastwest;whiteSpace=wrap;html=1;" vertex="1" parent="M-aX86utY8OTK0k6e23K-35">
          <mxGeometry y="78" width="200" height="42" as="geometry" />
        </mxCell>
        <mxCell id="M-aX86utY8OTK0k6e23K-39" value="Ship" style="swimlane;fontStyle=1;align=center;verticalAlign=top;childLayout=stackLayout;horizontal=1;startSize=26;horizontalStack=0;resizeParent=1;resizeParentMax=0;resizeLast=0;collapsible=1;marginBottom=0;whiteSpace=wrap;html=1;" vertex="1" parent="1">
          <mxGeometry x="290" y="720" width="210" height="150" as="geometry" />
        </mxCell>
        <mxCell id="M-aX86utY8OTK0k6e23K-40" value="&lt;div&gt;&amp;nbsp;+&amp;nbsp;&lt;span style=&quot;background-color: initial;&quot;&gt;&amp;nbsp;transport_type : str&lt;/span&gt;&lt;/div&gt;&lt;div&gt;&lt;span style=&quot;background-color: initial;&quot;&gt;&amp;nbsp;+&amp;nbsp; type_of_ship&lt;/span&gt;&lt;span style=&quot;background-color: initial;&quot;&gt;&amp;nbsp;: str&lt;/span&gt;&lt;/div&gt;" style="text;strokeColor=none;fillColor=none;align=left;verticalAlign=top;spacingLeft=4;spacingRight=4;overflow=hidden;rotatable=0;points=[[0,0.5],[1,0.5]];portConstraint=eastwest;whiteSpace=wrap;html=1;" vertex="1" parent="M-aX86utY8OTK0k6e23K-39">
          <mxGeometry y="26" width="210" height="54" as="geometry" />
        </mxCell>
        <mxCell id="M-aX86utY8OTK0k6e23K-41" value="" style="line;strokeWidth=1;fillColor=none;align=left;verticalAlign=middle;spacingTop=-1;spacingLeft=3;spacingRight=3;rotatable=0;labelPosition=right;points=[];portConstraint=eastwest;strokeColor=inherit;" vertex="1" parent="M-aX86utY8OTK0k6e23K-39">
          <mxGeometry y="80" width="210" height="8" as="geometry" />
        </mxCell>
        <mxCell id="M-aX86utY8OTK0k6e23K-42" value="&lt;div&gt;&lt;span style=&quot;background-color: initial;&quot;&gt;+ get_transport_type() : str&lt;/span&gt;&lt;/div&gt;&lt;div&gt;+ get_max_speed() : str&lt;/div&gt;&lt;div&gt;+ &amp;nbsp;__str__() : str&lt;/div&gt;" style="text;strokeColor=none;fillColor=none;align=left;verticalAlign=top;spacingLeft=4;spacingRight=4;overflow=hidden;rotatable=0;points=[[0,0.5],[1,0.5]];portConstraint=eastwest;whiteSpace=wrap;html=1;" vertex="1" parent="M-aX86utY8OTK0k6e23K-39">
          <mxGeometry y="88" width="210" height="62" as="geometry" />
        </mxCell>
        <mxCell id="M-aX86utY8OTK0k6e23K-43" value="Train" style="swimlane;fontStyle=1;align=center;verticalAlign=top;childLayout=stackLayout;horizontal=1;startSize=26;horizontalStack=0;resizeParent=1;resizeParentMax=0;resizeLast=0;collapsible=1;marginBottom=0;whiteSpace=wrap;html=1;" vertex="1" parent="1">
          <mxGeometry x="550" y="720" width="210" height="180" as="geometry" />
        </mxCell>
        <mxCell id="M-aX86utY8OTK0k6e23K-44" value="&lt;div&gt;+&amp;nbsp;&lt;span style=&quot;background-color: initial;&quot;&gt;,transport_type: str&lt;/span&gt;&lt;/div&gt;&amp;nbsp;+&amp;nbsp;&lt;span style=&quot;background-color: initial;&quot;&gt;type_of_train: str&amp;nbsp;&lt;/span&gt;&lt;div&gt;&lt;span style=&quot;background-color: initial;&quot;&gt;&amp;nbsp;+&amp;nbsp; stations: list [str]&lt;br&gt;&lt;/span&gt;&lt;/div&gt;" style="text;strokeColor=none;fillColor=none;align=left;verticalAlign=top;spacingLeft=4;spacingRight=4;overflow=hidden;rotatable=0;points=[[0,0.5],[1,0.5]];portConstraint=eastwest;whiteSpace=wrap;html=1;" vertex="1" parent="M-aX86utY8OTK0k6e23K-43">
          <mxGeometry y="26" width="210" height="54" as="geometry" />
        </mxCell>
        <mxCell id="M-aX86utY8OTK0k6e23K-45" value="" style="line;strokeWidth=1;fillColor=none;align=left;verticalAlign=middle;spacingTop=-1;spacingLeft=3;spacingRight=3;rotatable=0;labelPosition=right;points=[];portConstraint=eastwest;strokeColor=inherit;" vertex="1" parent="M-aX86utY8OTK0k6e23K-43">
          <mxGeometry y="80" width="210" height="8" as="geometry" />
        </mxCell>
        <mxCell id="M-aX86utY8OTK0k6e23K-46" value="&lt;div&gt;&lt;span style=&quot;background-color: initial;&quot;&gt;+ __str__() : str&lt;/span&gt;&lt;/div&gt;&lt;div&gt;&lt;span style=&quot;background-color: initial;&quot;&gt;+&amp;nbsp;&lt;/span&gt;&lt;span style=&quot;background-color: initial;&quot;&gt;__contains__( str ) : bool&lt;/span&gt;&lt;/div&gt;&lt;div&gt;&lt;span style=&quot;background-color: initial;&quot;&gt;+ get_transport_type() : str&lt;/span&gt;&lt;/div&gt;&lt;div&gt;+ get_max_speed() : str&lt;/div&gt;&lt;div&gt;&lt;br&gt;&lt;/div&gt;" style="text;strokeColor=none;fillColor=none;align=left;verticalAlign=top;spacingLeft=4;spacingRight=4;overflow=hidden;rotatable=0;points=[[0,0.5],[1,0.5]];portConstraint=eastwest;whiteSpace=wrap;html=1;" vertex="1" parent="M-aX86utY8OTK0k6e23K-43">
          <mxGeometry y="88" width="210" height="92" as="geometry" />
        </mxCell>
        <mxCell id="M-aX86utY8OTK0k6e23K-47" value="Plane" style="swimlane;fontStyle=1;align=center;verticalAlign=top;childLayout=stackLayout;horizontal=1;startSize=26;horizontalStack=0;resizeParent=1;resizeParentMax=0;resizeLast=0;collapsible=1;marginBottom=0;whiteSpace=wrap;html=1;" vertex="1" parent="1">
          <mxGeometry x="580" y="430" width="210" height="170" as="geometry" />
        </mxCell>
        <mxCell id="M-aX86utY8OTK0k6e23K-48" value="&lt;div&gt;+&amp;nbsp;&lt;span style=&quot;background-color: initial;&quot;&gt;,transport_type: str&lt;/span&gt;&lt;/div&gt;&amp;nbsp;+&amp;nbsp;&lt;span style=&quot;background-color: initial;&quot;&gt;type_of_plane str&amp;nbsp;&lt;/span&gt;" style="text;strokeColor=none;fillColor=none;align=left;verticalAlign=top;spacingLeft=4;spacingRight=4;overflow=hidden;rotatable=0;points=[[0,0.5],[1,0.5]];portConstraint=eastwest;whiteSpace=wrap;html=1;" vertex="1" parent="M-aX86utY8OTK0k6e23K-47">
          <mxGeometry y="26" width="210" height="44" as="geometry" />
        </mxCell>
        <mxCell id="M-aX86utY8OTK0k6e23K-49" value="" style="line;strokeWidth=1;fillColor=none;align=left;verticalAlign=middle;spacingTop=-1;spacingLeft=3;spacingRight=3;rotatable=0;labelPosition=right;points=[];portConstraint=eastwest;strokeColor=inherit;" vertex="1" parent="M-aX86utY8OTK0k6e23K-47">
          <mxGeometry y="70" width="210" height="8" as="geometry" />
        </mxCell>
        <mxCell id="M-aX86utY8OTK0k6e23K-50" value="&lt;div&gt;&lt;span style=&quot;background-color: initial;&quot;&gt;+ __str__() : str&lt;/span&gt;&lt;/div&gt;&lt;div&gt;&lt;span style=&quot;background-color: initial;&quot;&gt;+&amp;nbsp;&lt;/span&gt;&lt;span style=&quot;background-color: initial;&quot;&gt;__eq__(Plane) : bool&lt;/span&gt;&lt;/div&gt;&lt;div&gt;&lt;span style=&quot;background-color: initial;&quot;&gt;+ get_transport_type() : str&lt;/span&gt;&lt;/div&gt;&lt;div&gt;+ get_max_speed() : str&lt;/div&gt;&lt;div&gt;&lt;br&gt;&lt;/div&gt;" style="text;strokeColor=none;fillColor=none;align=left;verticalAlign=top;spacingLeft=4;spacingRight=4;overflow=hidden;rotatable=0;points=[[0,0.5],[1,0.5]];portConstraint=eastwest;whiteSpace=wrap;html=1;" vertex="1" parent="M-aX86utY8OTK0k6e23K-47">
          <mxGeometry y="78" width="210" height="92" as="geometry" />
        </mxCell>
        <mxCell id="v0ELcS4AngBdvT_r6iLy-7" value="Extends" style="endArrow=block;endSize=16;endFill=0;html=1;rounded=0;entryX=0.969;entryY=1;entryDx=0;entryDy=0;entryPerimeter=0;exitX=-0.005;exitY=0.652;exitDx=0;exitDy=0;exitPerimeter=0;" edge="1" parent="M-aX86utY8OTK0k6e23K-47" source="M-aX86utY8OTK0k6e23K-50">
          <mxGeometry width="160" relative="1" as="geometry">
            <mxPoint x="19" y="150" as="sourcePoint" />
            <mxPoint x="-40" y="70" as="targetPoint" />
            <Array as="points" />
          </mxGeometry>
        </mxCell>
        <mxCell id="v0ELcS4AngBdvT_r6iLy-1" value="Extends" style="endArrow=block;endSize=16;endFill=0;html=1;rounded=0;entryX=0.575;entryY=1;entryDx=0;entryDy=0;entryPerimeter=0;exitX=0.606;exitY=0.019;exitDx=0;exitDy=0;exitPerimeter=0;" edge="1" parent="1" source="M-aX86utY8OTK0k6e23K-26">
          <mxGeometry width="160" relative="1" as="geometry">
            <mxPoint x="570" y="418" as="sourcePoint" />
            <mxPoint x="470" y="190" as="targetPoint" />
            <Array as="points">
              <mxPoint x="450" y="270" />
            </Array>
          </mxGeometry>
        </mxCell>
        <mxCell id="v0ELcS4AngBdvT_r6iLy-2" value="Extends" style="endArrow=block;endSize=16;endFill=0;html=1;rounded=0;entryX=0.575;entryY=1;entryDx=0;entryDy=0;entryPerimeter=0;exitX=0.591;exitY=-0.005;exitDx=0;exitDy=0;exitPerimeter=0;" edge="1" parent="1" source="M-aX86utY8OTK0k6e23K-31">
          <mxGeometry width="160" relative="1" as="geometry">
            <mxPoint x="170" y="825" as="sourcePoint" />
            <mxPoint x="226" y="640" as="targetPoint" />
            <Array as="points">
              <mxPoint x="160" y="690" />
            </Array>
          </mxGeometry>
        </mxCell>
        <mxCell id="v0ELcS4AngBdvT_r6iLy-4" value="Extends" style="endArrow=block;endSize=16;endFill=0;html=1;rounded=0;entryX=0.575;entryY=1;entryDx=0;entryDy=0;entryPerimeter=0;" edge="1" parent="1" source="M-aX86utY8OTK0k6e23K-39">
          <mxGeometry width="160" relative="1" as="geometry">
            <mxPoint x="280" y="719" as="sourcePoint" />
            <mxPoint x="356" y="640" as="targetPoint" />
            <Array as="points" />
          </mxGeometry>
        </mxCell>
        <mxCell id="v0ELcS4AngBdvT_r6iLy-5" value="Extends" style="endArrow=block;endSize=16;endFill=0;html=1;rounded=0;entryX=0.969;entryY=1;entryDx=0;entryDy=0;entryPerimeter=0;" edge="1" parent="1" source="M-aX86utY8OTK0k6e23K-43" target="M-aX86utY8OTK0k6e23K-29">
          <mxGeometry width="160" relative="1" as="geometry">
            <mxPoint x="580" y="720" as="sourcePoint" />
            <mxPoint x="560" y="640" as="targetPoint" />
            <Array as="points" />
          </mxGeometry>
        </mxCell>
        <mxCell id="v0ELcS4AngBdvT_r6iLy-8" value="Extends" style="endArrow=block;endSize=16;endFill=0;html=1;rounded=0;entryX=0.969;entryY=1;entryDx=0;entryDy=0;entryPerimeter=0;exitX=0.8;exitY=0;exitDx=0;exitDy=0;exitPerimeter=0;" edge="1" parent="1" source="M-aX86utY8OTK0k6e23K-35">
          <mxGeometry width="160" relative="1" as="geometry">
            <mxPoint x="220" y="1000" as="sourcePoint" />
            <mxPoint x="161" y="920" as="targetPoint" />
            <Array as="points" />
          </mxGeometry>
        </mxCell>
      </root>
    </mxGraphModel>
  </diagram>
</mxfile>
